<svg id="visual" viewBox="0 0 900 600" width="900" height="600" xmlns="http://www.w3.org/2000/svg" xmlns:xlink="http://www.w3.org/1999/xlink" version="1.1"><path d="M0 375L75 408L150 418L225 412L300 409L375 381L450 411L525 385L600 381L675 391L750 416L825 386L900 371L900 601L825 601L750 601L675 601L600 601L525 601L450 601L375 601L300 601L225 601L150 601L75 601L0 601Z" fill="#c33764"></path><path d="M0 454L75 432L150 442L225 412L300 452L375 431L450 455L525 402L600 441L675 411L750 436L825 446L900 439L900 601L825 601L750 601L675 601L600 601L525 601L450 601L375 601L300 601L225 601L150 601L75 601L0 601Z" fill="#ac2c6d"></path><path d="M0 461L75 438L150 436L225 480L300 440L375 473L450 436L525 477L600 455L675 447L750 479L825 455L900 471L900 601L825 601L750 601L675 601L600 601L525 601L450 601L375 601L300 601L225 601L150 601L75 601L0 601Z" fill="#912773"></path><path d="M0 485L75 495L150 474L225 482L300 501L375 509L450 484L525 492L600 482L675 497L750 469L825 509L900 517L900 601L825 601L750 601L675 601L600 601L525 601L450 601L375 601L300 601L225 601L150 601L75 601L0 601Z" fill="#722676"></path><path d="M0 544L75 538L150 550L225 505L300 515L375 520L450 511L525 533L600 510L675 541L750 511L825 515L900 531L900 601L825 601L750 601L675 601L600 601L525 601L450 601L375 601L300 601L225 601L150 601L75 601L0 601Z" fill="#4e2676"></path><path d="M0 556L75 562L150 550L225 547L300 591L375 556L450 586L525 569L600 580L675 564L750 590L825 541L900 556L900 601L825 601L750 601L675 601L600 601L525 601L450 601L375 601L300 601L225 601L150 601L75 601L0 601Z" fill="#1d2671"></path></svg>