<svg id="visual" viewBox="0 0 900 200" width="900" height="200" xmlns="http://www.w3.org/2000/svg" xmlns:xlink="http://www.w3.org/1999/xlink" version="1.1"><path d="M0 111L25 101.2C50 91.3 100 71.7 150 65.3C200 59 250 66 300 69.7C350 73.3 400 73.7 450 79.3C500 85 550 96 600 101.8C650 107.7 700 108.3 750 93.8C800 79.3 850 49.7 875 34.8L900 20L900 201L875 201C850 201 800 201 750 201C700 201 650 201 600 201C550 201 500 201 450 201C400 201 350 201 300 201C250 201 200 201 150 201C100 201 50 201 25 201L0 201Z" fill="#c33764"></path><path d="M0 86L25 90.5C50 95 100 104 150 105.2C200 106.3 250 99.7 300 90.7C350 81.7 400 70.3 450 72.7C500 75 550 91 600 94C650 97 700 87 750 81.7C800 76.3 850 75.7 875 75.3L900 75L900 201L875 201C850 201 800 201 750 201C700 201 650 201 600 201C550 201 500 201 450 201C400 201 350 201 300 201C250 201 200 201 150 201C100 201 50 201 25 201L0 201Z" fill="#b93168"></path><path d="M0 90L25 92.7C50 95.3 100 100.7 150 104.5C200 108.3 250 110.7 300 111.5C350 112.3 400 111.7 450 103.5C500 95.3 550 79.7 600 80.5C650 81.3 700 98.7 750 99.8C800 101 850 86 875 78.5L900 71L900 201L875 201C850 201 800 201 750 201C700 201 650 201 600 201C550 201 500 201 450 201C400 201 350 201 300 201C250 201 200 201 150 201C100 201 50 201 25 201L0 201Z" fill="#ae2c6c"></path><path d="M0 129L25 121.7C50 114.3 100 99.7 150 95C200 90.3 250 95.7 300 102.7C350 109.7 400 118.3 450 111.8C500 105.3 550 83.7 600 78C650 72.3 700 82.7 750 83.2C800 83.7 850 74.3 875 69.7L900 65L900 201L875 201C850 201 800 201 750 201C700 201 650 201 600 201C550 201 500 201 450 201C400 201 350 201 300 201C250 201 200 201 150 201C100 201 50 201 25 201L0 201Z" fill="#a3296f"></path><path d="M0 80L25 83.7C50 87.3 100 94.7 150 102.3C200 110 250 118 300 113.8C350 109.7 400 93.3 450 84.8C500 76.3 550 75.7 600 84.5C650 93.3 700 111.7 750 112.7C800 113.7 850 97.3 875 89.2L900 81L900 201L875 201C850 201 800 201 750 201C700 201 650 201 600 201C550 201 500 201 450 201C400 201 350 201 300 201C250 201 200 201 150 201C100 201 50 201 25 201L0 201Z" fill="#962772"></path><path d="M0 119L25 119.7C50 120.3 100 121.7 150 124.2C200 126.7 250 130.3 300 125.7C350 121 400 108 450 104.7C500 101.3 550 107.7 600 113C650 118.3 700 122.7 750 124.3C800 126 850 125 875 124.5L900 124L900 201L875 201C850 201 800 201 750 201C700 201 650 201 600 201C550 201 500 201 450 201C400 201 350 201 300 201C250 201 200 201 150 201C100 201 50 201 25 201L0 201Z" fill="#892674"></path><path d="M0 139L25 138.7C50 138.3 100 137.7 150 138.3C200 139 250 141 300 138C350 135 400 127 450 126.7C500 126.3 550 133.7 600 137.3C650 141 700 141 750 138.2C800 135.3 850 129.7 875 126.8L900 124L900 201L875 201C850 201 800 201 750 201C700 201 650 201 600 201C550 201 500 201 450 201C400 201 350 201 300 201C250 201 200 201 150 201C100 201 50 201 25 201L0 201Z" fill="#7b2676"></path><path d="M0 136L25 140.3C50 144.7 100 153.3 150 151.7C200 150 250 138 300 136.3C350 134.7 400 143.3 450 144.3C500 145.3 550 138.7 600 133.5C650 128.3 700 124.7 750 127.3C800 130 850 139 875 143.5L900 148L900 201L875 201C850 201 800 201 750 201C700 201 650 201 600 201C550 201 500 201 450 201C400 201 350 201 300 201C250 201 200 201 150 201C100 201 50 201 25 201L0 201Z" fill="#6c2676"></path><path d="M0 149L25 147.8C50 146.7 100 144.3 150 144.8C200 145.3 250 148.7 300 148.8C350 149 400 146 450 148.8C500 151.7 550 160.3 600 161.8C650 163.3 700 157.7 750 157.3C800 157 850 162 875 164.5L900 167L900 201L875 201C850 201 800 201 750 201C700 201 650 201 600 201C550 201 500 201 450 201C400 201 350 201 300 201C250 201 200 201 150 201C100 201 50 201 25 201L0 201Z" fill="#5c2676"></path><path d="M0 165L25 165.7C50 166.3 100 167.7 150 169.5C200 171.3 250 173.7 300 174.5C350 175.3 400 174.7 450 173C500 171.3 550 168.7 600 169.3C650 170 700 174 750 171.3C800 168.7 850 159.3 875 154.7L900 150L900 201L875 201C850 201 800 201 750 201C700 201 650 201 600 201C550 201 500 201 450 201C400 201 350 201 300 201C250 201 200 201 150 201C100 201 50 201 25 201L0 201Z" fill="#4a2776"></path><path d="M0 163L25 162.8C50 162.7 100 162.3 150 165.8C200 169.3 250 176.7 300 179.2C350 181.7 400 179.3 450 175.5C500 171.7 550 166.3 600 167.8C650 169.3 700 177.7 750 178.7C800 179.7 850 173.3 875 170.2L900 167L900 201L875 201C850 201 800 201 750 201C700 201 650 201 600 201C550 201 500 201 450 201C400 201 350 201 300 201C250 201 200 201 150 201C100 201 50 201 25 201L0 201Z" fill="#362674"></path><path d="M0 175L25 176C50 177 100 179 150 180.2C200 181.3 250 181.7 300 180.8C350 180 400 178 450 177.3C500 176.7 550 177.3 600 179C650 180.7 700 183.3 750 183.8C800 184.3 850 182.7 875 181.8L900 181L900 201L875 201C850 201 800 201 750 201C700 201 650 201 600 201C550 201 500 201 450 201C400 201 350 201 300 201C250 201 200 201 150 201C100 201 50 201 25 201L0 201Z" fill="#1d2671"></path></svg>