<svg id="visual" viewBox="0 0 900 200" width="900" height="200" xmlns="http://www.w3.org/2000/svg" xmlns:xlink="http://www.w3.org/1999/xlink" version="1.1"><path d="M0 89L25 83.2C50 77.3 100 65.7 150 59.5C200 53.3 250 52.7 300 60.8C350 69 400 86 450 83.5C500 81 550 59 600 54.2C650 49.3 700 61.7 750 68.8C800 76 850 78 875 79L900 80L900 201L875 201C850 201 800 201 750 201C700 201 650 201 600 201C550 201 500 201 450 201C400 201 350 201 300 201C250 201 200 201 150 201C100 201 50 201 25 201L0 201Z" fill="#c33764"></path><path d="M0 84L25 86.5C50 89 100 94 150 95.2C200 96.3 250 93.7 300 95C350 96.3 400 101.7 450 93.8C500 86 550 65 600 63.2C650 61.3 700 78.7 750 78.3C800 78 850 60 875 51L900 42L900 201L875 201C850 201 800 201 750 201C700 201 650 201 600 201C550 201 500 201 450 201C400 201 350 201 300 201C250 201 200 201 150 201C100 201 50 201 25 201L0 201Z" fill="#b93168"></path><path d="M0 51L25 61C50 71 100 91 150 90.8C200 90.7 250 70.3 300 72.7C350 75 400 100 450 100C500 100 550 75 600 65.8C650 56.7 700 63.3 750 64.8C800 66.3 850 62.7 875 60.8L900 59L900 201L875 201C850 201 800 201 750 201C700 201 650 201 600 201C550 201 500 201 450 201C400 201 350 201 300 201C250 201 200 201 150 201C100 201 50 201 25 201L0 201Z" fill="#ae2c6c"></path><path d="M0 68L25 78.2C50 88.3 100 108.7 150 116.2C200 123.7 250 118.3 300 117C350 115.7 400 118.3 450 115C500 111.7 550 102.3 600 92.8C650 83.3 700 73.7 750 68.8C800 64 850 64 875 64L900 64L900 201L875 201C850 201 800 201 750 201C700 201 650 201 600 201C550 201 500 201 450 201C400 201 350 201 300 201C250 201 200 201 150 201C100 201 50 201 25 201L0 201Z" fill="#a3296f"></path><path d="M0 122L25 122.7C50 123.3 100 124.7 150 124.2C200 123.7 250 121.3 300 119C350 116.7 400 114.3 450 112.7C500 111 550 110 600 112.7C650 115.3 700 121.7 750 126.5C800 131.3 850 134.7 875 136.3L900 138L900 201L875 201C850 201 800 201 750 201C700 201 650 201 600 201C550 201 500 201 450 201C400 201 350 201 300 201C250 201 200 201 150 201C100 201 50 201 25 201L0 201Z" fill="#962772"></path><path d="M0 146L25 144.3C50 142.7 100 139.3 150 129.8C200 120.3 250 104.7 300 105.2C350 105.7 400 122.3 450 124.7C500 127 550 115 600 109.7C650 104.3 700 105.7 750 110.3C800 115 850 123 875 127L900 131L900 201L875 201C850 201 800 201 750 201C700 201 650 201 600 201C550 201 500 201 450 201C400 201 350 201 300 201C250 201 200 201 150 201C100 201 50 201 25 201L0 201Z" fill="#892674"></path><path d="M0 144L25 145.8C50 147.7 100 151.3 150 147.8C200 144.3 250 133.7 300 127.2C350 120.7 400 118.3 450 121.8C500 125.3 550 134.7 600 137.8C650 141 700 138 750 136.5C800 135 850 135 875 135L900 135L900 201L875 201C850 201 800 201 750 201C700 201 650 201 600 201C550 201 500 201 450 201C400 201 350 201 300 201C250 201 200 201 150 201C100 201 50 201 25 201L0 201Z" fill="#7b2676"></path><path d="M0 142L25 145.2C50 148.3 100 154.7 150 154.3C200 154 250 147 300 146.5C350 146 400 152 450 154.7C500 157.3 550 156.7 600 150.3C650 144 700 132 750 128C800 124 850 128 875 130L900 132L900 201L875 201C850 201 800 201 750 201C700 201 650 201 600 201C550 201 500 201 450 201C400 201 350 201 300 201C250 201 200 201 150 201C100 201 50 201 25 201L0 201Z" fill="#6c2676"></path><path d="M0 164L25 161.3C50 158.7 100 153.3 150 154C200 154.7 250 161.3 300 159.2C350 157 400 146 450 143.8C500 141.7 550 148.3 600 150.2C650 152 700 149 750 150.7C800 152.3 850 158.7 875 161.8L900 165L900 201L875 201C850 201 800 201 750 201C700 201 650 201 600 201C550 201 500 201 450 201C400 201 350 201 300 201C250 201 200 201 150 201C100 201 50 201 25 201L0 201Z" fill="#5c2676"></path><path d="M0 150L25 153.8C50 157.7 100 165.3 150 169C200 172.7 250 172.3 300 170C350 167.7 400 163.3 450 164C500 164.7 550 170.3 600 173.3C650 176.3 700 176.7 750 173.2C800 169.7 850 162.3 875 158.7L900 155L900 201L875 201C850 201 800 201 750 201C700 201 650 201 600 201C550 201 500 201 450 201C400 201 350 201 300 201C250 201 200 201 150 201C100 201 50 201 25 201L0 201Z" fill="#4a2776"></path><path d="M0 159L25 162.8C50 166.7 100 174.3 150 176.5C200 178.7 250 175.3 300 174.8C350 174.3 400 176.7 450 178C500 179.3 550 179.7 600 178.2C650 176.7 700 173.3 750 173.3C800 173.3 850 176.7 875 178.3L900 180L900 201L875 201C850 201 800 201 750 201C700 201 650 201 600 201C550 201 500 201 450 201C400 201 350 201 300 201C250 201 200 201 150 201C100 201 50 201 25 201L0 201Z" fill="#362674"></path><path d="M0 175L25 176.3C50 177.7 100 180.3 150 180.8C200 181.3 250 179.7 300 179.3C350 179 400 180 450 182.3C500 184.7 550 188.3 600 189.7C650 191 700 190 750 190.3C800 190.7 850 192.3 875 193.2L900 194L900 201L875 201C850 201 800 201 750 201C700 201 650 201 600 201C550 201 500 201 450 201C400 201 350 201 300 201C250 201 200 201 150 201C100 201 50 201 25 201L0 201Z" fill="#1d2671"></path></svg>